<svg width="41" height="41" viewBox="0 0 41 41" fill="none" xmlns="http://www.w3.org/2000/svg">
<rect width="41" height="41" rx="20.5" fill="#8EBC1C"/>
<path d="M26.3477 26.7188V28.5H15.1797V26.9414L20.7695 20.7188C21.457 19.9531 21.9883 19.3047 22.3633 18.7734C22.7461 18.2344 23.0117 17.7539 23.1602 17.332C23.3164 16.9023 23.3945 16.4648 23.3945 16.0195C23.3945 15.457 23.2773 14.9492 23.043 14.4961C22.8164 14.0352 22.4805 13.668 22.0352 13.3945C21.5898 13.1211 21.0508 12.9844 20.418 12.9844C19.6602 12.9844 19.0273 13.1328 18.5195 13.4297C18.0195 13.7188 17.6445 14.125 17.3945 14.6484C17.1445 15.1719 17.0195 15.7734 17.0195 16.4531H14.8516C14.8516 15.4922 15.0625 14.6133 15.4844 13.8164C15.9062 13.0195 16.5312 12.3867 17.3594 11.918C18.1875 11.4414 19.207 11.2031 20.418 11.2031C21.4961 11.2031 22.418 11.3945 23.1836 11.7773C23.9492 12.1523 24.5352 12.6836 24.9414 13.3711C25.3555 14.0508 25.5625 14.8477 25.5625 15.7617C25.5625 16.2617 25.4766 16.7695 25.3047 17.2852C25.1406 17.793 24.9102 18.3008 24.6133 18.8086C24.3242 19.3164 23.9844 19.8164 23.5938 20.3086C23.2109 20.8008 22.8008 21.2852 22.3633 21.7617L17.793 26.7188H26.3477Z" fill="white"/>
</svg>
