<svg width="41" height="41" viewBox="0 0 41 41" fill="none" xmlns="http://www.w3.org/2000/svg">
<rect width="41" height="41" rx="20.5" fill="#8EBC1C"/>
<path d="M18.332 18.9023H19.8789C20.6367 18.9023 21.2617 18.7773 21.7539 18.5273C22.2539 18.2695 22.625 17.9219 22.8672 17.4844C23.1172 17.0391 23.2422 16.5391 23.2422 15.9844C23.2422 15.3281 23.1328 14.7773 22.9141 14.332C22.6953 13.8867 22.3672 13.5508 21.9297 13.3242C21.4922 13.0977 20.9375 12.9844 20.2656 12.9844C19.6562 12.9844 19.1172 13.1055 18.6484 13.3477C18.1875 13.582 17.8242 13.918 17.5586 14.3555C17.3008 14.793 17.1719 15.3086 17.1719 15.9023H15.0039C15.0039 15.0352 15.2227 14.2461 15.6602 13.5352C16.0977 12.8242 16.7109 12.2578 17.5 11.8359C18.2969 11.4141 19.2188 11.2031 20.2656 11.2031C21.2969 11.2031 22.1992 11.3867 22.9727 11.7539C23.7461 12.1133 24.3477 12.6523 24.7773 13.3711C25.207 14.082 25.4219 14.9688 25.4219 16.0312C25.4219 16.4609 25.3203 16.9219 25.1172 17.4141C24.9219 17.8984 24.6133 18.3516 24.1914 18.7734C23.7773 19.1953 23.2383 19.543 22.5742 19.8164C21.9102 20.082 21.1133 20.2148 20.1836 20.2148H18.332V18.9023ZM18.332 20.6836V19.3828H20.1836C21.2695 19.3828 22.168 19.5117 22.8789 19.7695C23.5898 20.0273 24.1484 20.3711 24.5547 20.8008C24.9688 21.2305 25.2578 21.7031 25.4219 22.2188C25.5938 22.7266 25.6797 23.2344 25.6797 23.7422C25.6797 24.5391 25.543 25.2461 25.2695 25.8633C25.0039 26.4805 24.625 27.0039 24.1328 27.4336C23.6484 27.8633 23.0781 28.1875 22.4219 28.4062C21.7656 28.625 21.0508 28.7344 20.2773 28.7344C19.5352 28.7344 18.8359 28.6289 18.1797 28.418C17.5312 28.207 16.957 27.9023 16.457 27.5039C15.957 27.0977 15.5664 26.6016 15.2852 26.0156C15.0039 25.4219 14.8633 24.7461 14.8633 23.9883H17.0312C17.0312 24.582 17.1602 25.1016 17.418 25.5469C17.6836 25.9922 18.0586 26.3398 18.543 26.5898C19.0352 26.832 19.6133 26.9531 20.2773 26.9531C20.9414 26.9531 21.5117 26.8398 21.9883 26.6133C22.4727 26.3789 22.8438 26.0273 23.1016 25.5586C23.3672 25.0898 23.5 24.5 23.5 23.7891C23.5 23.0781 23.3516 22.4961 23.0547 22.043C22.7578 21.582 22.3359 21.2422 21.7891 21.0234C21.25 20.7969 20.6133 20.6836 19.8789 20.6836H18.332Z" fill="white"/>
</svg>
