<svg width="41" height="41" viewBox="0 0 41 41" fill="none" xmlns="http://www.w3.org/2000/svg">
<rect width="41" height="41" rx="20.5" fill="#8EBC1C"/>
<path d="M17.9102 20.3789L16.1758 19.9336L17.0312 11.4375H25.7852V13.4414H18.8711L18.3555 18.082C18.668 17.9023 19.0625 17.7344 19.5391 17.5781C20.0234 17.4219 20.5781 17.3438 21.2031 17.3438C21.9922 17.3438 22.6992 17.4805 23.3242 17.7539C23.9492 18.0195 24.4805 18.4023 24.918 18.9023C25.3633 19.4023 25.7031 20.0039 25.9375 20.707C26.1719 21.4102 26.2891 22.1953 26.2891 23.0625C26.2891 23.8828 26.1758 24.6367 25.9492 25.3242C25.7305 26.0117 25.3984 26.6133 24.9531 27.1289C24.5078 27.6367 23.9453 28.0312 23.2656 28.3125C22.5938 28.5938 21.8008 28.7344 20.8867 28.7344C20.1992 28.7344 19.5469 28.6406 18.9297 28.4531C18.3203 28.2578 17.7734 27.9648 17.2891 27.5742C16.8125 27.1758 16.4219 26.6836 16.1172 26.0977C15.8203 25.5039 15.6328 24.8086 15.5547 24.0117H17.6172C17.7109 24.6523 17.8984 25.1914 18.1797 25.6289C18.4609 26.0664 18.8281 26.3984 19.2812 26.625C19.7422 26.8438 20.2773 26.9531 20.8867 26.9531C21.4023 26.9531 21.8594 26.8633 22.2578 26.6836C22.6562 26.5039 22.9922 26.2461 23.2656 25.9102C23.5391 25.5742 23.7461 25.168 23.8867 24.6914C24.0352 24.2148 24.1094 23.6797 24.1094 23.0859C24.1094 22.5469 24.0352 22.0469 23.8867 21.5859C23.7383 21.125 23.5156 20.7227 23.2188 20.3789C22.9297 20.0352 22.5742 19.7695 22.1523 19.582C21.7305 19.3867 21.2461 19.2891 20.6992 19.2891C19.9727 19.2891 19.4219 19.3867 19.0469 19.582C18.6797 19.7773 18.3008 20.043 17.9102 20.3789Z" fill="white"/>
</svg>
