<svg width="41" height="41" viewBox="0 0 41 41" fill="none" xmlns="http://www.w3.org/2000/svg">
<rect width="41" height="41" rx="20.5" fill="#8EBC1C"/>
<path d="M23.4883 11.4141H23.6758V13.2539H23.4883C22.3398 13.2539 21.3789 13.4414 20.6055 13.8164C19.832 14.1836 19.2188 14.6797 18.7656 15.3047C18.3125 15.9219 17.9844 16.6172 17.7812 17.3906C17.5859 18.1641 17.4883 18.9492 17.4883 19.7461V22.2539C17.4883 23.0117 17.5781 23.6836 17.7578 24.2695C17.9375 24.8477 18.1836 25.3359 18.4961 25.7344C18.8086 26.1328 19.1602 26.4336 19.5508 26.6367C19.9492 26.8398 20.3633 26.9414 20.793 26.9414C21.293 26.9414 21.7383 26.8477 22.1289 26.6602C22.5195 26.4648 22.8477 26.1953 23.1133 25.8516C23.3867 25.5 23.5938 25.0859 23.7344 24.6094C23.875 24.1328 23.9453 23.6094 23.9453 23.0391C23.9453 22.5312 23.8828 22.043 23.7578 21.5742C23.6328 21.0977 23.4414 20.6758 23.1836 20.3086C22.9258 19.9336 22.6016 19.6406 22.2109 19.4297C21.8281 19.2109 21.3711 19.1016 20.8398 19.1016C20.2383 19.1016 19.6758 19.25 19.1523 19.5469C18.6367 19.8359 18.2109 20.2188 17.875 20.6953C17.5469 21.1641 17.3594 21.6758 17.3125 22.2305L16.1641 22.2188C16.2734 21.3438 16.4766 20.5977 16.7734 19.9805C17.0781 19.3555 17.4531 18.8477 17.8984 18.457C18.3516 18.0586 18.8555 17.7695 19.4102 17.5898C19.9727 17.4023 20.5664 17.3086 21.1914 17.3086C22.043 17.3086 22.7773 17.4688 23.3945 17.7891C24.0117 18.1094 24.5195 18.5391 24.918 19.0781C25.3164 19.6094 25.6094 20.2109 25.7969 20.8828C25.9922 21.5469 26.0898 22.2305 26.0898 22.9336C26.0898 23.7383 25.9766 24.4922 25.75 25.1953C25.5234 25.8984 25.1836 26.5156 24.7305 27.0469C24.2852 27.5781 23.7344 27.9922 23.0781 28.2891C22.4219 28.5859 21.6602 28.7344 20.793 28.7344C19.8711 28.7344 19.0664 28.5469 18.3789 28.1719C17.6914 27.7891 17.1211 27.2812 16.668 26.6484C16.2148 26.0156 15.875 25.3125 15.6484 24.5391C15.4219 23.7656 15.3086 22.9805 15.3086 22.1836V21.1641C15.3086 19.9609 15.4297 18.7812 15.6719 17.625C15.9141 16.4688 16.332 15.4219 16.9258 14.4844C17.5273 13.5469 18.3594 12.8008 19.4219 12.2461C20.4844 11.6914 21.8398 11.4141 23.4883 11.4141Z" fill="white"/>
</svg>
