<svg width="40" height="40" viewBox="0 0 40 40" fill="none" xmlns="http://www.w3.org/2000/svg">
<path d="M20 1C30.7816 1 39.5 9.51845 39.5 20C39.5 30.4816 30.7816 39 20 39C9.21844 39 0.5 30.4816 0.5 20C0.5 9.51845 9.21844 1 20 1Z" fill="#92C11D" stroke="white"/>
<path d="M16.3775 16.3442V12.6428C16.3775 12.5317 16.3852 12.4206 16.4101 12.3122C16.6252 11.3768 17.4281 10 19.6578 10C21.5325 10 22.3422 11.4507 22.5784 12.2823C22.6147 12.4101 22.6257 12.5427 22.6257 12.6756V16.3441M12.0038 27.0209L12.7385 14.94C12.7683 14.4492 12.9679 13.9429 13.4363 13.7933C13.7124 13.7051 13.9851 13.6867 14.1841 13.6969C14.293 13.7025 14.4017 13.7137 14.5109 13.7137H23.563H25.125C25.5079 13.7137 25.8321 13.9074 26.0618 14.1167C26.2981 14.3321 26.3858 14.6515 26.4069 14.9706C26.623 18.2391 26.9995 24.4753 26.9995 26.7114C26.9995 29.0634 25.3333 29.8577 24.5002 29.9609C21.9488 30.0125 16.9989 30.2476 14.9995 30C13.0001 29.7524 11.9517 27.8462 12.0038 27.0209Z" stroke="white" stroke-linecap="round"/>
</svg>
