<svg width="40" height="40" viewBox="0 0 40 40" fill="none" xmlns="http://www.w3.org/2000/svg">
<path d="M20 1C30.7816 1 39.5 9.51845 39.5 20C39.5 30.4816 30.7816 39 20 39C9.21844 39 0.5 30.4816 0.5 20C0.5 9.51845 9.21844 1 20 1Z" fill="#92C11D" stroke="white"/>
<path d="M8 23.9512V20.439C8 19.7561 8.61538 18.9756 10.4615 18.6829L14.7692 18.0976L18.7692 15.1707C19.3846 14.7805 20.9231 14 22.1538 14H25.2308H27.0769C28.3077 14.3902 30.8308 15.7561 31.0769 18.0976C31.3846 18.3902 32 19.2098 32 20.1463V23.3659C32 23.6585 31.7538 24.2439 30.7692 24.2439H29.8462C29.7436 24.8293 29.1077 26 27.3846 26C25.6615 26 25.0256 24.8293 24.9231 24.2439H15.3846C15.3846 24.8293 14.4615 26 12.9231 26C11.4462 26 10.5641 24.8293 10.4615 24.2439C9.84615 24.3415 8.61538 24.5366 8 23.9512Z" fill="#92C11D"/>
<path d="M14.7692 18.0976L10.4615 18.6829C8.61538 18.9756 8 19.7561 8 20.439V23.9512C8.61538 24.5366 9.84615 24.3415 10.4615 24.2439M14.7692 18.0976L18.7692 15.1707C19.3846 14.7805 20.9231 14 22.1538 14C22.8967 14 24.1253 14 25.2308 14M14.7692 18.0976H25.2308M31.0769 18.0976C30.8308 15.7561 28.3077 14.3902 27.0769 14C26.6297 14 25.9568 14 25.2308 14M31.0769 18.0976C31.3846 18.3902 32 19.2098 32 20.1463C32 21.0829 32 22.6829 32 23.3659C32 23.6585 31.7538 24.2439 30.7692 24.2439C29.7846 24.2439 29.7436 24.2439 29.8462 24.2439M31.0769 18.0976H25.2308M29.8462 24.2439C30.0513 23.2683 29.8462 21.3171 27.3846 21.3171C24.9231 21.3171 24.7179 23.2683 24.9231 24.2439M29.8462 24.2439C29.7436 24.8293 29.1077 26 27.3846 26C25.6615 26 25.0256 24.8293 24.9231 24.2439M24.9231 24.2439H15.3846M15.3846 24.2439C15.3846 23.0732 15.0769 21.3171 12.6154 21.3171C11.6923 21.4146 9.96923 22.1366 10.4615 24.2439M15.3846 24.2439C15.3846 24.8293 14.4615 26 12.9231 26C11.4462 26 10.5641 24.8293 10.4615 24.2439M25.2308 18.0976V14" stroke="white"/>
</svg>
