<svg width="40" height="40" viewBox="0 0 40 40" fill="none" xmlns="http://www.w3.org/2000/svg">
<path d="M20 1C30.7816 1 39.5 9.51845 39.5 20C39.5 30.4816 30.7816 39 20 39C9.21844 39 0.5 30.4816 0.5 20C0.5 9.51845 9.21844 1 20 1Z" fill="#8AC57F" stroke="white"/>
<path d="M16.378 16.3442V12.6428C16.378 12.5317 16.3857 12.4206 16.4106 12.3122C16.6256 11.3768 17.4286 10 19.6583 10C21.533 10 22.3427 11.4507 22.5789 12.2823C22.6152 12.4101 22.6262 12.5427 22.6262 12.6756V16.3441M12.0043 27.0209L12.739 14.94C12.7688 14.4492 12.9684 13.9429 13.4368 13.7933C13.7129 13.7051 13.9855 13.6867 14.1845 13.6969C14.2935 13.7025 14.4022 13.7137 14.5114 13.7137H23.5635H25.1255C25.5084 13.7137 25.8326 13.9074 26.0623 14.1167C26.2986 14.3321 26.3863 14.6515 26.4074 14.9706C26.6234 18.2391 27 24.4753 27 26.7114C27 29.0634 25.3338 29.8577 24.5007 29.9609C21.9493 30.0125 16.9994 30.2476 15 30C13.0006 29.7524 11.9522 27.8462 12.0043 27.0209Z" stroke="white" stroke-linecap="round"/>
</svg>
