<svg width="41" height="40" viewBox="0 0 41 40" fill="none" xmlns="http://www.w3.org/2000/svg">
<path d="M20.5 1C31.2816 1 40 9.51845 40 20C40 30.4816 31.2816 39 20.5 39C9.71844 39 1 30.4816 1 20C1 9.51845 9.71844 1 20.5 1Z" fill="#8AC57F" stroke="white"/>
<path d="M8 28L9.67382 27.9929M33.8884 27.8895L32.6609 27.8948M32.6609 27.8948L32.7725 16.843M32.6609 27.8948L22.0601 27.94M32.7725 16.843V16.843C33.3912 16.843 33.8409 16.2554 33.6793 15.6582L32.9946 13.1286C32.7586 12.2567 31.9674 11.6512 31.0641 11.6512H19.0472M32.7725 16.843L23.7501 16.8456M19.0472 11.6512L17.7264 10.3437C16.9669 9.59179 15.7504 9.56993 14.9643 10.294L8.72657 16.0402C8.46984 16.2767 8.25217 16.5764 8.25205 16.9254C8.25187 17.47 8.54532 18.0344 9.67382 17.8372M19.0472 11.6512L23.7339 16.5116M9.67382 17.8372L14.6974 13.3004C15.4573 12.6141 16.6127 12.6126 17.3744 13.2968L22.0601 17.5058M9.67382 17.8372V27.9929M22.0601 17.5058C22.6169 17.7328 23.6293 17.8855 23.7414 16.9535M22.0601 17.5058V27.94M23.7339 16.5116L23.7414 16.9535M23.7339 16.5116C23.7339 16.6221 23.7544 16.7455 23.7501 16.8456M23.7414 16.9535C23.7455 16.919 23.7485 16.8831 23.7501 16.8456M9.67382 27.9929L12.3519 27.9814M12.3519 27.9814L19.7167 27.95M12.3519 27.9814V19.8256M19.7167 27.95V19.8256M19.7167 27.95L22.0601 27.94M12.3519 19.8256V19.8256C12.3519 19.5435 12.4677 19.2737 12.6722 19.0793L15.0364 16.8326C15.1065 16.766 15.1695 16.6924 15.2392 16.6255C15.5597 16.3177 16.2396 16.0207 17.0386 16.7326L19.486 19.2563C19.634 19.4089 19.7167 19.613 19.7167 19.8256V19.8256M12.3519 19.8256H19.7167M27.4721 19.7151H28.6524C29.7569 19.7151 30.6524 20.6105 30.6524 21.7151V22.8081M27.4721 19.7151H26.2918C25.1873 19.7151 24.2918 20.6105 24.2918 21.7151V22.8081M27.4721 19.7151V25.9012M27.4721 25.9012H26.2918C25.1873 25.9012 24.2918 25.0057 24.2918 23.9012V22.8081M27.4721 25.9012H28.6524C29.7569 25.9012 30.6524 25.0057 30.6524 23.9012V22.8081M24.2918 22.8081H30.6524M18.1545 23.25V24.4651" stroke="white" stroke-linecap="round"/>
</svg>
