<svg width="86" height="85" viewBox="0 0 86 85" fill="none" xmlns="http://www.w3.org/2000/svg">
<path d="M67.7917 10.625H18.2083C14.2963 10.625 11.125 13.7963 11.125 17.7083V67.2917C11.125 71.2037 14.2963 74.375 18.2083 74.375H67.7917C71.7037 74.375 74.875 71.2037 74.875 67.2917V17.7083C74.875 13.7963 71.7037 10.625 67.7917 10.625Z" stroke="#A6A6A6" stroke-width="3" stroke-linecap="round" stroke-linejoin="round"/>
<path d="M30.6045 35.4167C33.5385 35.4167 35.917 33.0382 35.917 30.1042C35.917 27.1702 33.5385 24.7917 30.6045 24.7917C27.6705 24.7917 25.292 27.1702 25.292 30.1042C25.292 33.0382 27.6705 35.4167 30.6045 35.4167Z" stroke="#A6A6A6" stroke-width="3" stroke-linecap="round" stroke-linejoin="round"/>
<path d="M74.8747 53.125L57.1663 35.4167L18.208 74.375" stroke="#A6A6A6" stroke-width="3" stroke-linecap="round" stroke-linejoin="round"/>
</svg>
